<?xml version="1.0" encoding="UTF-8" standalone="no" ?>
<!DOCTYPE svg PUBLIC "-//W3C//DTD SVG 1.1//EN" "http://www.w3.org/Graphics/SVG/1.1/DTD/svg11.dtd">
<svg xmlns="http://www.w3.org/2000/svg" xmlns:xlink="http://www.w3.org/1999/xlink" version="1.1" width="1280" height="1024" viewBox="0 0 1280 1024" xml:space="preserve">
<desc>Created with Fabric.js 4.4.0</desc>
<defs>
</defs>
<g transform="matrix(1 0 0 1 640 512)" id="background-logo"  >
<rect style="stroke: none; stroke-width: 0; stroke-dasharray: none; stroke-linecap: butt; stroke-dashoffset: 0; stroke-linejoin: miter; stroke-miterlimit: 4; fill: rgb(255,255,255); fill-opacity: 0; fill-rule: nonzero; opacity: 1;"  paint-order="stroke"  x="-640" y="-512" rx="0" ry="0" width="1280" height="1024" />
</g>
<g transform="matrix(1.9211538461538462 0 0 1.9211538461538462 640 391.4628861700762)" id="logo-logo"  >
<g style=""  paint-order="stroke"   >
		<g transform="matrix(2.627963474398584 0 0 2.627963474398584 36.66050490213297 -20.673175062631174)"  >
<linearGradient id="SVGID_5_3_3_3_823366" gradientUnits="userSpaceOnUse" gradientTransform="matrix(1 0 0 1 0 0)"  x1="113.78" y1="136.07" x2="113.78" y2="47.94">
<stop offset="0%" style="stop-color:rgb(133,0,45);stop-opacity: 1"/>
<stop offset="5%" style="stop-color:rgb(152,24,42);stop-opacity: 1"/>
<stop offset="14.000000000000002%" style="stop-color:rgb(181,62,38);stop-opacity: 1"/>
<stop offset="24%" style="stop-color:rgb(205,93,35);stop-opacity: 1"/>
<stop offset="34%" style="stop-color:rgb(223,117,32);stop-opacity: 1"/>
<stop offset="44%" style="stop-color:rgb(237,135,30);stop-opacity: 1"/>
<stop offset="55.00000000000001%" style="stop-color:rgb(244,145,29);stop-opacity: 1"/>
<stop offset="69%" style="stop-color:rgb(247,148,29);stop-opacity: 1"/>
<stop offset="70%" style="stop-color:rgb(247,154,29);stop-opacity: 1"/>
<stop offset="76%" style="stop-color:rgb(247,177,29);stop-opacity: 1"/>
<stop offset="83%" style="stop-color:rgb(247,193,29);stop-opacity: 1"/>
<stop offset="90%" style="stop-color:rgb(247,203,29);stop-opacity: 1"/>
<stop offset="100%" style="stop-color:rgb(247,206,29);stop-opacity: 1"/>
</linearGradient>
<path style="stroke: none; stroke-width: 1; stroke-dasharray: none; stroke-linecap: butt; stroke-dashoffset: 0; stroke-linejoin: miter; stroke-miterlimit: 4; fill: url(#SVGID_5_3_3_3_823366); fill-rule: nonzero; opacity: 1;"  paint-order="stroke"  transform=" translate(-113.78303561207116, -92.00688436801335)" d="M 137.16 118.76 C 137.16 90.15 120.78999999999999 83.59 120.78999999999999 83.59 C 132.79 100.59 116.27 103.5 118.67999999999999 117.31 C 99.88 103.7 142.63 64.23 100.67999999999999 47.94 C 124.25 93.74 56.79999999999999 104.94 114.3 134.12 C 126.11 139.27 131.85999999999999 132.61 131.85999999999999 132.61 Z" stroke-linecap="round" />
</g>
		<g transform="matrix(2.627963474398584 0 0 2.627963474398584 0 12.675978333398916)"  >
<linearGradient id="SVGID_6_4_4_4_823367" gradientUnits="userSpaceOnUse" gradientTransform="matrix(1 0 0 1 0 0)"  x1="99.83" y1="152.06" x2="99.83" y2="57.81">
<stop offset="0%" style="stop-color:rgb(223,45,45);stop-opacity: 1"/>
<stop offset="5%" style="stop-color:rgb(227,63,42);stop-opacity: 1"/>
<stop offset="16%" style="stop-color:rgb(234,93,37);stop-opacity: 1"/>
<stop offset="28.000000000000004%" style="stop-color:rgb(240,117,34);stop-opacity: 1"/>
<stop offset="40%" style="stop-color:rgb(244,135,31);stop-opacity: 1"/>
<stop offset="53%" style="stop-color:rgb(246,145,30);stop-opacity: 1"/>
<stop offset="69%" style="stop-color:rgb(247,148,29);stop-opacity: 1"/>
<stop offset="70%" style="stop-color:rgb(247,154,29);stop-opacity: 1"/>
<stop offset="76%" style="stop-color:rgb(247,177,29);stop-opacity: 1"/>
<stop offset="83%" style="stop-color:rgb(247,193,29);stop-opacity: 1"/>
<stop offset="90%" style="stop-color:rgb(247,203,29);stop-opacity: 1"/>
<stop offset="100%" style="stop-color:rgb(247,206,29);stop-opacity: 1"/>
</linearGradient>
<path style="stroke: none; stroke-width: 1; stroke-dasharray: none; stroke-linecap: butt; stroke-dashoffset: 0; stroke-linejoin: miter; stroke-miterlimit: 4; fill: url(#SVGID_6_4_4_4_823367); fill-rule: nonzero; opacity: 1;"  paint-order="stroke"  transform=" translate(-99.83287791038438, -104.92)" d="M 137.16 118.76 C 137.17167010380302 131.54254260469457 129.86105940214583 143.20220879553537 118.35 148.76 L 118.28 148.76 C 113.7254000417576 150.53947666051178 108.93439805373842 151.64120496577357 104.06 152.03 C 103.92 152.03 100.4 152.03 100.4 152.03 C 62.92000000000001 152.03 57.07000000000001 112.59 66.45 100.48 C 64.54 117.72 74.32000000000001 122.77000000000001 77.45 124.48 C 57.86 90.85 91.2 74.7 97.73 57.81 C 103.85000000000001 84.61 86.2 87.94 88.87 107.32 C 90.69 120.49 119 151.26 137.16 118.76 Z" stroke-linecap="round" />
</g>
		<g transform="matrix(2.627963474398584 0 0 2.627963474398584 -32.892553814936605 -109.14851747857091)"  >
<path style="stroke: none; stroke-width: 1; stroke-dasharray: none; stroke-linecap: butt; stroke-dashoffset: 0; stroke-linejoin: miter; stroke-miterlimit: 4; fill: rgb(247,205,29); fill-rule: nonzero; opacity: 1;"  paint-order="stroke"  transform=" translate(-87.31651147859289, -58.339999999999996)" d="M 82.35 68.74 C 100 56.519999999999996 88.75 47.94 88.75 47.94 C 89.45 60.53 84.3 66.79 82.35 68.74 Z" stroke-linecap="round" />
</g>
		<g transform="matrix(2.627963474398584 0 0 2.627963474398584 76.4234590914478 -62.213089825812176)"  >
<path style="stroke: none; stroke-width: 1; stroke-dasharray: none; stroke-linecap: butt; stroke-dashoffset: 0; stroke-linejoin: miter; stroke-miterlimit: 4; fill: rgb(251,169,0); fill-rule: nonzero; opacity: 1;"  paint-order="stroke"  transform=" translate(-128.91374598026403, -76.19999999999999)" d="M 132.78 85.57 C 122 77.7 123.43 69 131.31 66.83 C 127.14 72 127.59 78.42 132.78 85.57 Z" stroke-linecap="round" />
</g>
</g>
</g>
<g transform="matrix(1.9211538461538462 0 0 1.9211538461538462 639.68156875 756.1871435347055)" id="text-logo-path-group"  >
<g style=""  paint-order="stroke"   >
		<g transform="matrix(1 0 0 1 0 0)" id="text-logo-path-0"  >
<linearGradient id="SVGID_823368" gradientUnits="userSpaceOnUse" gradientTransform="matrix(1 0 0 1 1.789999999999992 -36.77)"  x1="0" y1="0" x2="0" y2="58">
<stop offset="0%" style="stop-color:rgb(250,217,97);stop-opacity: 1"/>
<stop offset="100%" style="stop-color:rgb(247,107,28);stop-opacity: 1"/>
</linearGradient>
<path style="stroke: none; stroke-width: 0; stroke-dasharray: none; stroke-linecap: butt; stroke-dashoffset: 0; stroke-linejoin: miter; stroke-miterlimit: 4; fill: url(#SVGID_823368); fill-rule: nonzero; opacity: 1;"  paint-order="stroke"  transform=" translate(-192.29999999999998, 13.590000000000003)" d="M 45.59 -36.11 L 45.59 -35.09 Q 43.86 -34.99 43.1 -34.68 Q 42.33 -34.37 42.05 -33.51 Q 41.77 -32.64 41.77 -30.7 L 41.77 -30.7 L 41.77 -5.41 Q 41.77 -3.47 42.05 -2.6 Q 42.33 -1.73 43.12 -1.43 Q 43.91 -1.12 45.59 -1.02 L 45.59 -1.02 L 45.59 0 Q 42.79 -0.15 37.59 -0.15 L 37.59 -0.15 Q 32.13 -0.15 29.53 0 L 29.53 0 L 29.53 -1.02 Q 31.37 -1.12 32.21 -1.43 Q 33.05 -1.73 33.35 -2.6 Q 33.66 -3.47 33.66 -5.41 L 33.66 -5.41 L 33.66 -32.08 L 21.37 0.05 L 20.55 0.05 L 6.78 -32.79 L 6.78 -8.36 Q 6.78 -5.36 7.09 -3.95 Q 7.4 -2.55 8.42 -1.91 Q 9.44 -1.28 11.73 -1.02 L 11.73 -1.02 L 11.73 0 Q 9.74 -0.15 6.22 -0.15 L 6.22 -0.15 Q 3.42 -0.15 1.79 0 L 1.79 0 L 1.79 -1.02 Q 3.47 -1.28 4.26 -1.89 Q 5.05 -2.5 5.33 -3.83 Q 5.61 -5.15 5.61 -7.75 L 5.61 -7.75 L 5.61 -30.7 Q 5.61 -32.64 5.33 -33.51 Q 5.05 -34.37 4.26 -34.68 Q 3.47 -34.99 1.79 -35.09 L 1.79 -35.09 L 1.79 -36.11 Q 3.42 -35.96 6.22 -35.96 L 6.22 -35.96 Q 10.91 -35.96 14.28 -36.11 L 14.28 -36.11 L 24.58 -11.27 L 33.97 -35.96 L 37.59 -35.96 Q 42.79 -35.96 45.59 -36.11 L 45.59 -36.11 Z M 51.2 9.59 L 51.2 8.57 Q 53.35 8.36 54.75 7.32 Q 56.15 6.27 56.89 3.85 Q 57.63 1.43 57.63 -2.75 L 57.63 -2.75 L 57.63 -30.7 Q 57.63 -32.64 57.35 -33.51 Q 57.07 -34.37 56.28 -34.68 Q 55.49 -34.99 53.8 -35.09 L 53.8 -35.09 L 53.8 -36.11 Q 56.36 -35.96 61.51 -35.96 L 61.51 -35.96 Q 66.76 -35.96 69.56 -36.11 L 69.56 -36.11 L 69.56 -35.09 Q 67.83 -34.99 67.06 -34.68 Q 66.3 -34.37 66.02 -33.51 Q 65.74 -32.64 65.74 -30.7 L 65.74 -30.7 L 65.74 -12.04 L 65.74 -8.93 Q 65.74 -1.73 64.87 1.28 L 64.87 1.28 Q 63.8 5 60.31 7.29 Q 56.81 9.59 51.2 9.59 L 51.2 9.59 Z M 112.91 -19.07 L 112.91 -18.97 Q 119.54 -18.46 122.65 -15.91 Q 125.77 -13.36 125.77 -9.89 L 125.77 -9.89 Q 125.77 -5.15 122.04 -2.58 Q 118.32 0 111.69 0 L 111.69 0 Q 110.21 0 109.19 -0.05 L 109.19 -0.05 Q 105.82 -0.15 102.61 -0.15 L 102.61 -0.15 Q 97.36 -0.15 94.76 0 L 94.76 0 L 94.76 -1.02 Q 96.44 -1.12 97.23 -1.43 Q 98.02 -1.73 98.3 -2.6 Q 98.58 -3.47 98.58 -5.41 L 98.58 -5.41 L 98.58 -30.7 Q 98.58 -32.64 98.3 -33.51 Q 98.02 -34.37 97.23 -34.68 Q 96.44 -34.99 94.76 -35.09 L 94.76 -35.09 L 94.76 -36.11 Q 97.36 -35.96 102.51 -35.96 L 102.51 -35.96 L 108.17 -36.01 Q 109.19 -36.06 110.52 -36.06 L 110.52 -36.06 Q 116.64 -36.06 119.88 -33.86 Q 123.11 -31.67 123.11 -28.05 L 123.11 -28.05 Q 123.11 -25.09 120.54 -22.54 Q 117.96 -19.99 112.91 -19.07 L 112.91 -19.07 Z M 109.85 -35.09 L 109.85 -35.09 Q 108.48 -35.09 107.84 -34.73 Q 107.2 -34.37 106.95 -33.46 Q 106.69 -32.54 106.69 -30.7 L 106.69 -30.7 L 106.69 -19.18 L 108.88 -19.18 Q 112.2 -19.18 113.53 -21.45 Q 114.85 -23.72 114.85 -27.49 L 114.85 -27.49 Q 114.85 -31.31 113.65 -33.2 Q 112.45 -35.09 109.85 -35.09 Z M 110.21 -1.17 L 110.21 -1.17 Q 117.3 -1.17 117.3 -10.1 L 117.3 -10.1 Q 117.3 -14.13 115.26 -16.22 Q 113.22 -18.31 108.83 -18.31 L 108.83 -18.31 L 106.69 -18.31 L 106.69 -5.41 Q 106.69 -3.57 106.95 -2.7 Q 107.2 -1.84 107.94 -1.5 Q 108.68 -1.17 110.21 -1.17 Z M 166.51 -36.11 L 166.51 -35.09 Q 164.83 -34.83 164.04 -34.22 Q 163.25 -33.61 162.97 -32.28 Q 162.69 -30.96 162.69 -28.36 L 162.69 -28.36 L 162.69 -14.84 Q 162.69 -7.55 160.6 -4.03 L 160.6 -4.03 Q 159.22 -1.79 156.62 -0.54 Q 154.02 0.71 150.25 0.71 L 150.25 0.71 Q 144.33 0.71 141.07 -1.84 L 141.07 -1.84 Q 138.72 -3.72 137.9 -6.6 Q 137.09 -9.49 137.09 -14.69 L 137.09 -14.69 L 137.09 -30.7 Q 137.09 -32.64 136.81 -33.51 Q 136.53 -34.37 135.74 -34.68 Q 134.95 -34.99 133.26 -35.09 L 133.26 -35.09 L 133.26 -36.11 Q 135.86 -35.96 141.22 -35.96 L 141.22 -35.96 Q 146.52 -35.96 149.33 -36.11 L 149.33 -36.11 L 149.33 -35.09 Q 147.49 -34.99 146.65 -34.68 Q 145.81 -34.37 145.5 -33.51 Q 145.2 -32.64 145.2 -30.7 L 145.2 -30.7 L 145.2 -11.48 Q 145.2 -6.12 146.75 -3.6 Q 148.31 -1.07 152.23 -1.07 L 152.23 -1.07 Q 157.33 -1.07 159.43 -4.51 Q 161.52 -7.96 161.52 -14.28 L 161.52 -14.28 L 161.52 -27.74 Q 161.52 -30.7 161.16 -32.13 Q 160.8 -33.56 159.78 -34.2 Q 158.76 -34.83 156.57 -35.09 L 156.57 -35.09 L 156.57 -36.11 Q 158.51 -35.96 162.08 -35.96 L 162.08 -35.96 Q 164.93 -35.96 166.51 -36.11 L 166.51 -36.11 Z M 190.03 -36.11 L 190.03 -35.09 Q 188.29 -34.99 187.53 -34.68 Q 186.76 -34.37 186.48 -33.51 Q 186.2 -32.64 186.2 -30.7 L 186.2 -30.7 L 186.2 -5.41 Q 186.2 -3.47 186.48 -2.6 Q 186.76 -1.73 187.53 -1.43 Q 188.29 -1.12 190.03 -1.02 L 190.03 -1.02 L 190.03 0 Q 187.27 -0.15 182.32 -0.15 L 182.32 -0.15 Q 176.87 -0.15 174.27 0 L 174.27 0 L 174.27 -1.02 Q 175.95 -1.12 176.74 -1.43 Q 177.53 -1.73 177.81 -2.6 Q 178.09 -3.47 178.09 -5.41 L 178.09 -5.41 L 178.09 -30.7 Q 178.09 -32.64 177.81 -33.51 Q 177.53 -34.37 176.74 -34.68 Q 175.95 -34.99 174.27 -35.09 L 174.27 -35.09 L 174.27 -36.11 Q 176.87 -35.96 182.32 -35.96 L 182.32 -35.96 Q 187.27 -35.96 190.03 -36.11 L 190.03 -36.11 Z M 214.61 -36.11 L 214.61 -35.09 Q 212.77 -34.99 211.93 -34.68 Q 211.09 -34.37 210.78 -33.51 Q 210.48 -32.64 210.48 -30.7 L 210.48 -30.7 L 210.48 -4.79 Q 210.48 -3.16 210.73 -2.42 Q 210.99 -1.68 211.62 -1.43 Q 212.26 -1.17 213.69 -1.17 L 213.69 -1.17 L 216.19 -1.17 Q 219.66 -1.17 222.18 -4.28 Q 224.71 -7.4 225.47 -12.55 L 225.47 -12.55 L 226.64 -12.55 Q 226.49 -10.81 226.49 -8.06 L 226.49 -8.06 Q 226.49 -3.16 226.85 0 L 226.85 0 Q 223.38 -0.15 215.17 -0.15 L 215.17 -0.15 Q 204.05 -0.15 198.54 0 L 198.54 0 L 198.54 -1.02 Q 200.23 -1.12 201.02 -1.43 Q 201.81 -1.73 202.09 -2.6 Q 202.37 -3.47 202.37 -5.41 L 202.37 -5.41 L 202.37 -30.7 Q 202.37 -32.64 202.09 -33.51 Q 201.81 -34.37 201.02 -34.68 Q 200.23 -34.99 198.54 -35.09 L 198.54 -35.09 L 198.54 -36.11 Q 201.14 -35.96 206.6 -35.96 L 206.6 -35.96 Q 211.8 -35.96 214.61 -36.11 L 214.61 -36.11 Z M 250.56 -36.11 L 250.56 -36.11 Q 260.51 -36.11 265.45 -31.59 Q 270.4 -27.08 270.4 -18.46 L 270.4 -18.46 Q 270.4 -12.9 267.98 -8.75 Q 265.56 -4.59 260.99 -2.3 Q 256.43 0 250.1 0 L 250.1 0 L 246.94 -0.05 Q 243.98 -0.15 242.66 -0.15 L 242.66 -0.15 Q 237.41 -0.15 234.8 0 L 234.8 0 L 234.8 -1.02 Q 236.49 -1.12 237.28 -1.43 Q 238.07 -1.73 238.35 -2.6 Q 238.63 -3.47 238.63 -5.41 L 238.63 -5.41 L 238.63 -30.7 Q 238.63 -32.64 238.35 -33.51 Q 238.07 -34.37 237.28 -34.68 Q 236.49 -34.99 234.8 -35.09 L 234.8 -35.09 L 234.8 -36.11 Q 236.95 -35.96 240.97 -35.96 L 240.97 -35.96 L 242.56 -35.96 L 244.6 -36.01 Q 248.78 -36.11 250.56 -36.11 Z M 250.51 -35.19 L 250.51 -35.19 Q 248.93 -35.19 248.14 -34.83 Q 247.35 -34.48 247.04 -33.56 Q 246.74 -32.64 246.74 -30.8 L 246.74 -30.8 L 246.74 -5.3 Q 246.74 -3.47 247.04 -2.55 Q 247.35 -1.63 248.14 -1.28 Q 248.93 -0.92 250.56 -0.92 L 250.56 -0.92 Q 256.73 -0.92 259.33 -5.23 Q 261.94 -9.54 261.94 -18.26 L 261.94 -18.26 Q 261.94 -26.98 259.26 -31.08 Q 256.58 -35.19 250.51 -35.19 Z M 306.97 -7.75 L 306.97 -7.75 Q 306.97 -3.06 307.33 0 L 307.33 0 Q 303.86 -0.15 295.65 -0.15 L 295.65 -0.15 Q 284.53 -0.15 279.02 0 L 279.02 0 L 279.02 -1.02 Q 280.7 -1.12 281.49 -1.43 Q 282.29 -1.73 282.57 -2.6 Q 282.85 -3.47 282.85 -5.41 L 282.85 -5.41 L 282.85 -30.7 Q 282.85 -32.64 282.57 -33.51 Q 282.29 -34.37 281.49 -34.68 Q 280.7 -34.99 279.02 -35.09 L 279.02 -35.09 L 279.02 -36.11 Q 284.53 -35.96 295.65 -35.96 L 295.65 -35.96 Q 303.14 -35.96 306.31 -36.11 L 306.31 -36.11 Q 305.95 -31.88 305.95 -28.56 L 305.95 -28.56 Q 305.95 -26.32 306.1 -25.09 L 306.1 -25.09 L 304.93 -25.09 Q 304.16 -30.55 302.18 -32.74 Q 300.19 -34.94 296.57 -34.94 L 296.57 -34.94 L 294.47 -34.94 Q 292.89 -34.94 292.18 -34.68 Q 291.47 -34.43 291.21 -33.69 Q 290.96 -32.95 290.96 -31.31 L 290.96 -31.31 L 290.96 -18.67 L 292.59 -18.67 Q 295.29 -18.67 296.69 -20.66 Q 298.1 -22.64 298.66 -25.4 L 298.66 -25.4 L 299.83 -25.4 Q 299.68 -23.26 299.68 -20.6 L 299.68 -20.6 L 299.68 -18.16 Q 299.68 -15.56 299.98 -10.91 L 299.98 -10.91 L 298.81 -10.91 Q 297.74 -17.65 292.59 -17.65 L 292.59 -17.65 L 290.96 -17.65 L 290.96 -4.79 Q 290.96 -3.16 291.21 -2.42 Q 291.47 -1.68 292.18 -1.43 Q 292.89 -1.17 294.47 -1.17 L 294.47 -1.17 L 296.97 -1.17 Q 300.59 -1.17 302.81 -3.65 Q 305.03 -6.12 305.95 -12.04 L 305.95 -12.04 L 307.12 -12.04 Q 306.97 -10.35 306.97 -7.75 Z M 350.32 -2.86 L 351.03 -2.24 Q 349.66 -0.66 348.08 0.03 Q 346.49 0.71 344.25 0.71 L 344.25 0.71 Q 341.29 0.71 339.58 -0.54 Q 337.88 -1.79 337.37 -4.79 L 337.37 -4.79 L 336.45 -9.89 Q 335.78 -13.62 334.84 -15.38 Q 333.9 -17.14 331.7 -17.14 L 331.7 -17.14 L 328.39 -17.14 L 328.39 -5.41 Q 328.39 -3.47 328.67 -2.6 Q 328.95 -1.73 329.72 -1.43 Q 330.48 -1.12 332.21 -1.02 L 332.21 -1.02 L 332.21 0 Q 329.46 -0.15 324.51 -0.15 L 324.51 -0.15 Q 319.06 -0.15 316.46 0 L 316.46 0 L 316.46 -1.02 Q 318.14 -1.12 318.93 -1.43 Q 319.72 -1.73 320 -2.6 Q 320.28 -3.47 320.28 -5.41 L 320.28 -5.41 L 320.28 -30.7 Q 320.28 -32.64 320 -33.51 Q 319.72 -34.37 318.93 -34.68 Q 318.14 -34.99 316.46 -35.09 L 316.46 -35.09 L 316.46 -36.11 Q 319.06 -35.96 324.21 -35.96 L 324.21 -35.96 L 329.87 -36.01 Q 330.89 -36.06 332.21 -36.06 L 332.21 -36.06 Q 339.25 -36.06 342.8 -33.76 Q 346.34 -31.47 346.34 -27.18 L 346.34 -27.18 Q 346.34 -23.56 343.69 -20.81 Q 341.04 -18.05 334.92 -17.34 L 334.92 -17.34 Q 339.51 -16.93 341.75 -15.35 Q 344 -13.77 344.66 -10.61 L 344.66 -10.61 L 345.83 -5.36 Q 346.24 -3.32 346.77 -2.5 Q 347.31 -1.68 348.28 -1.68 L 348.28 -1.68 Q 348.89 -1.73 349.32 -1.99 Q 349.76 -2.24 350.32 -2.86 L 350.32 -2.86 Z M 331.55 -35.09 L 331.55 -35.09 Q 330.17 -35.09 329.54 -34.73 Q 328.9 -34.37 328.64 -33.46 Q 328.39 -32.54 328.39 -30.7 L 328.39 -30.7 L 328.39 -18.16 L 330.58 -18.16 Q 334.76 -18.16 336.32 -20.37 Q 337.88 -22.59 337.88 -26.62 L 337.88 -26.62 Q 337.88 -30.8 336.4 -32.95 Q 334.92 -35.09 331.55 -35.09 Z M 369.6 -36.77 L 369.6 -36.77 Q 372.25 -36.77 373.83 -36.26 Q 375.41 -35.75 377.04 -34.78 L 377.04 -34.78 Q 377.6 -34.48 378.04 -34.27 Q 378.47 -34.07 378.78 -34.07 L 378.78 -34.07 Q 379.24 -34.07 379.49 -34.6 Q 379.75 -35.14 379.9 -36.31 L 379.9 -36.31 L 381.07 -36.31 Q 380.82 -32.9 380.82 -24.68 L 380.82 -24.68 L 379.64 -24.68 Q 379.44 -27.44 378.39 -29.94 Q 377.35 -32.44 375.44 -33.99 Q 373.52 -35.55 370.97 -35.55 L 370.97 -35.55 Q 368.48 -35.55 366.92 -34.14 Q 365.36 -32.74 365.36 -30.35 L 365.36 -30.35 Q 365.36 -28.56 366.13 -27.23 Q 366.89 -25.91 368.27 -24.81 Q 369.65 -23.72 372.5 -21.83 L 372.5 -21.83 L 374.14 -20.71 Q 377.15 -18.72 378.88 -17.24 Q 380.61 -15.76 381.71 -13.8 Q 382.81 -11.83 382.81 -9.23 L 382.81 -9.23 Q 382.81 -5.97 381.12 -3.75 Q 379.44 -1.53 376.56 -0.41 Q 373.68 0.71 370.16 0.71 L 370.16 0.71 Q 367.3 0.71 365.42 0.2 Q 363.53 -0.31 361.95 -1.17 L 361.95 -1.17 Q 360.83 -1.89 360.21 -1.89 L 360.21 -1.89 Q 359.75 -1.89 359.5 -1.35 Q 359.24 -0.82 359.09 0.36 L 359.09 0.36 L 357.92 0.36 Q 358.12 -2.86 358.12 -13.41 L 358.12 -13.41 L 359.3 -13.41 Q 359.65 -7.7 361.85 -4.16 Q 364.04 -0.61 368.58 -0.61 L 368.58 -0.61 Q 371.33 -0.61 373.12 -2.09 Q 374.9 -3.57 374.9 -6.32 L 374.9 -6.32 Q 374.9 -9.18 373.07 -11.22 Q 371.23 -13.26 367.25 -15.81 L 367.25 -15.81 Q 364.19 -17.8 362.36 -19.28 Q 360.52 -20.76 359.35 -22.77 Q 358.17 -24.79 358.17 -27.44 L 358.17 -27.44 Q 358.17 -30.5 359.73 -32.61 Q 361.28 -34.73 363.89 -35.75 Q 366.49 -36.77 369.6 -36.77 Z" stroke-linecap="round" />
</g>
</g>
</g>
<g transform="matrix(1.9211538461538462 0 0 1.9211538461538462 629.7968977933969 829.6609515288307)" id="tagline-f49c16c7-91ed-4f21-af63-8e71355aee4b-logo-path-group"  >
<g style=""  paint-order="stroke"   >
		<g transform="matrix(1 0 0 1 0 0)" id="tagline-f49c16c7-91ed-4f21-af63-8e71355aee4b-logo-path-0"  >
<linearGradient id="SVGID_823369" gradientUnits="userSpaceOnUse" gradientTransform="matrix(1 0 0 1 1.5499999999999972 -23.01)"  x1="0" y1="0" x2="0" y2="42">
<stop offset="0%" style="stop-color:rgb(250,217,97);stop-opacity: 1"/>
<stop offset="100%" style="stop-color:rgb(247,107,28);stop-opacity: 1"/>
</linearGradient>
<path style="stroke: none; stroke-width: 0; stroke-dasharray: none; stroke-linecap: butt; stroke-dashoffset: 0; stroke-linejoin: miter; stroke-miterlimit: 4; fill: url(#SVGID_823369); fill-rule: nonzero; opacity: 1;"  paint-order="stroke"  transform=" translate(-104.24499999999999, 11.245000000000001)" d="M 19.76 -4.37 Q 19.76 -2.44 20.02 0 L 20.02 0 Q 17.61 -0.11 11.91 -0.11 L 11.91 -0.11 Q 5.07 -0.11 1.55 0 L 1.55 0 L 1.55 -0.74 Q 2.89 -0.81 3.5 -1.04 Q 4.11 -1.26 4.33 -1.89 Q 4.55 -2.52 4.55 -3.92 L 4.55 -3.92 L 4.55 -18.57 Q 4.55 -19.98 4.33 -20.61 Q 4.11 -21.24 3.5 -21.46 Q 2.89 -21.68 1.55 -21.76 L 1.55 -21.76 L 1.55 -22.5 Q 5.07 -22.38 11.91 -22.38 L 11.91 -22.38 Q 17.09 -22.38 19.28 -22.5 L 19.28 -22.5 Q 19.02 -20.28 19.02 -18.5 L 19.02 -18.5 Q 19.02 -17.06 19.13 -16.21 L 19.13 -16.21 L 18.28 -16.21 Q 18.02 -19.24 17 -20.44 Q 15.98 -21.64 13.69 -21.64 L 13.69 -21.64 L 10.99 -21.64 Q 9.66 -21.64 9.05 -21.44 Q 8.44 -21.24 8.21 -20.61 Q 7.99 -19.98 7.99 -18.57 L 7.99 -18.57 L 7.99 -11.69 L 11.06 -11.69 Q 12.25 -11.69 12.88 -12.3 Q 13.5 -12.91 13.73 -13.63 Q 13.95 -14.36 14.13 -15.47 L 14.13 -15.47 L 14.98 -15.47 Q 14.87 -14.21 14.87 -12.73 L 14.87 -12.73 L 14.87 -11.32 Q 14.87 -9.88 15.1 -7.18 L 15.1 -7.18 L 14.24 -7.18 Q 14.02 -8.95 13.39 -9.95 Q 12.76 -10.95 11.06 -10.95 L 11.06 -10.95 L 7.99 -10.95 L 7.99 -3.92 Q 7.99 -2.52 8.21 -1.89 Q 8.44 -1.26 9.05 -1.05 Q 9.66 -0.85 10.99 -0.85 L 10.99 -0.85 L 13.69 -0.85 Q 15.54 -0.85 16.61 -1.44 Q 17.69 -2.03 18.24 -3.35 Q 18.8 -4.66 19.02 -7.03 L 19.02 -7.03 L 19.87 -7.03 Q 19.76 -6.03 19.76 -4.37 L 19.76 -4.37 Z M 37.37 -23.01 Q 39 -23.01 39.94 -22.66 Q 40.88 -22.31 41.88 -21.64 L 41.88 -21.64 Q 42.7 -21.13 43.14 -21.13 L 43.14 -21.13 Q 43.48 -21.13 43.66 -21.52 Q 43.84 -21.9 43.96 -22.75 L 43.96 -22.75 L 44.81 -22.75 Q 44.62 -20.83 44.62 -15.95 L 44.62 -15.95 L 43.77 -15.95 Q 43.55 -18.61 42.05 -20.46 Q 40.55 -22.31 37.7 -22.31 L 37.7 -22.31 Q 35.74 -22.31 34.47 -21.27 Q 33.19 -20.24 33.19 -18.65 L 33.19 -18.65 Q 33.19 -17.5 33.76 -16.65 Q 34.34 -15.8 35.24 -15.19 Q 36.15 -14.58 37.81 -13.69 L 37.81 -13.69 L 39.03 -13.02 Q 41.33 -11.8 42.72 -10.84 Q 44.1 -9.88 44.95 -8.64 Q 45.81 -7.4 45.81 -5.77 L 45.81 -5.77 Q 45.81 -2.77 43.64 -1.13 Q 41.48 0.52 38.22 0.52 L 38.22 0.52 Q 36.45 0.52 35.32 0.15 Q 34.19 -0.22 33.15 -0.85 L 33.15 -0.85 Q 32.34 -1.37 31.89 -1.37 L 31.89 -1.37 Q 31.56 -1.37 31.38 -0.98 Q 31.19 -0.59 31.08 0.26 L 31.08 0.26 L 30.23 0.26 Q 30.38 -1.55 30.38 -7.88 L 30.38 -7.88 L 31.23 -7.88 Q 31.49 -4.44 33.08 -2.33 Q 34.67 -0.22 37.96 -0.22 L 37.96 -0.22 Q 39.81 -0.22 41.16 -1.28 Q 42.51 -2.33 42.51 -4.4 L 42.51 -4.4 Q 42.51 -5.62 41.81 -6.57 Q 41.11 -7.51 39.92 -8.25 Q 38.74 -8.99 36.63 -10.1 L 36.63 -10.1 Q 33.6 -11.65 32.01 -13.21 Q 30.41 -14.76 30.41 -17.24 L 30.41 -17.24 Q 30.41 -19.98 32.43 -21.5 Q 34.45 -23.01 37.37 -23.01 L 37.37 -23.01 Z M 75.66 -22.5 Q 75.41 -20.05 75.41 -18.13 L 75.41 -18.13 Q 75.41 -16.21 75.52 -15.1 L 75.52 -15.1 L 74.67 -15.1 Q 74.44 -17.69 73.96 -19.05 Q 73.48 -20.42 72.41 -21.03 Q 71.34 -21.64 69.34 -21.64 L 69.34 -21.64 L 66.97 -21.64 L 66.97 -4.29 Q 66.97 -2.74 67.27 -2.03 Q 67.56 -1.33 68.3 -1.07 Q 69.04 -0.81 70.71 -0.74 L 70.71 -0.74 L 70.71 0 Q 68.78 -0.11 65.27 -0.11 L 65.27 -0.11 Q 61.57 -0.11 59.79 0 L 59.79 0 L 59.79 -0.74 Q 61.46 -0.81 62.2 -1.07 Q 62.94 -1.33 63.23 -2.03 Q 63.53 -2.74 63.53 -4.29 L 63.53 -4.29 L 63.53 -21.64 L 61.16 -21.64 Q 59.16 -21.64 58.09 -21.03 Q 57.02 -20.42 56.54 -19.05 Q 56.05 -17.69 55.83 -15.1 L 55.83 -15.1 L 54.98 -15.1 Q 55.09 -16.28 55.09 -18.13 L 55.09 -18.13 Q 55.09 -20.05 54.83 -22.5 L 54.83 -22.5 Q 57.91 -22.38 65.27 -22.38 L 65.27 -22.38 Q 72.59 -22.38 75.66 -22.5 L 75.66 -22.5 Z M 85.77 -4.22 Q 86.73 -4.22 87.43 -3.51 Q 88.13 -2.81 88.13 -1.85 L 88.13 -1.85 Q 88.13 -0.89 87.43 -0.18 Q 86.73 0.52 85.77 0.52 L 85.77 0.52 Q 84.8 0.52 84.1 -0.18 Q 83.4 -0.89 83.4 -1.85 L 83.4 -1.85 Q 83.4 -2.81 84.1 -3.51 Q 84.8 -4.22 85.77 -4.22 L 85.77 -4.22 Z M 120.43 -19.57 Q 123.02 -19.57 124.5 -18.35 Q 125.98 -17.13 125.98 -14.91 L 125.98 -14.91 Q 125.98 -13.39 125.19 -11.97 Q 124.39 -10.54 123.27 -9.36 Q 122.14 -8.18 120.29 -6.51 L 120.29 -6.51 Q 118.77 -5.11 118.03 -4.38 Q 117.29 -3.66 116.7 -2.85 L 116.7 -2.85 L 124.21 -2.85 Q 125.21 -2.85 125.71 -3.02 Q 126.21 -3.18 126.39 -3.57 Q 126.58 -3.96 126.69 -4.74 L 126.69 -4.74 L 127.32 -4.74 Q 127.32 -1.33 127.46 0.18 L 127.46 0.18 Q 126.65 0 121.95 0 L 121.95 0 L 113.29 0 L 113.29 -0.63 Q 113.92 -1.29 115.44 -2.74 L 115.44 -2.74 Q 117.55 -4.7 118.95 -6.27 Q 120.36 -7.84 121.38 -9.84 Q 122.4 -11.84 122.4 -14.1 L 122.4 -14.1 Q 122.4 -18.09 118.7 -18.09 L 118.7 -18.09 Q 115.66 -18.09 113.74 -14.61 L 113.74 -14.61 L 113.15 -14.95 Q 114.11 -16.95 115.88 -18.26 Q 117.66 -19.57 120.43 -19.57 L 120.43 -19.57 Z M 146.3 -19.57 Q 148.89 -19.57 150.92 -18.37 Q 152.96 -17.17 154.11 -14.95 Q 155.25 -12.73 155.25 -9.84 L 155.25 -9.84 Q 155.25 -6.88 154.07 -4.53 Q 152.88 -2.18 150.76 -0.83 Q 148.63 0.52 145.89 0.52 L 145.89 0.52 Q 143.34 0.52 141.3 -0.68 Q 139.27 -1.89 138.1 -4.11 Q 136.94 -6.33 136.94 -9.25 L 136.94 -9.25 Q 136.94 -12.17 138.1 -14.52 Q 139.27 -16.87 141.4 -18.22 Q 143.52 -19.57 146.3 -19.57 L 146.3 -19.57 Z M 145.97 -18.91 Q 144.37 -18.91 143.13 -17.78 Q 141.9 -16.65 141.21 -14.49 Q 140.53 -12.32 140.53 -9.36 L 140.53 -9.36 Q 140.53 -4.66 142.12 -2.4 Q 143.71 -0.15 146.22 -0.15 L 146.22 -0.15 Q 147.81 -0.15 149.05 -1.29 Q 150.29 -2.44 150.98 -4.61 Q 151.66 -6.77 151.66 -9.73 L 151.66 -9.73 Q 151.66 -14.39 150.07 -16.65 Q 148.48 -18.91 145.97 -18.91 L 145.97 -18.91 Z M 172.12 -19.57 Q 174.71 -19.57 176.19 -18.35 Q 177.67 -17.13 177.67 -14.91 L 177.67 -14.91 Q 177.67 -13.39 176.88 -11.97 Q 176.08 -10.54 174.95 -9.36 Q 173.83 -8.18 171.98 -6.51 L 171.98 -6.51 Q 170.46 -5.11 169.72 -4.38 Q 168.98 -3.66 168.39 -2.85 L 168.39 -2.85 L 175.9 -2.85 Q 176.9 -2.85 177.4 -3.02 Q 177.9 -3.18 178.08 -3.57 Q 178.27 -3.96 178.38 -4.74 L 178.38 -4.74 L 179.01 -4.74 Q 179.01 -1.33 179.15 0.18 L 179.15 0.18 Q 178.34 0 173.64 0 L 173.64 0 L 164.98 0 L 164.98 -0.63 Q 165.61 -1.29 167.13 -2.74 L 167.13 -2.74 Q 169.24 -4.7 170.64 -6.27 Q 172.05 -7.84 173.07 -9.84 Q 174.09 -11.84 174.09 -14.1 L 174.09 -14.1 Q 174.09 -18.09 170.38 -18.09 L 170.38 -18.09 Q 167.35 -18.09 165.43 -14.61 L 165.43 -14.61 L 164.84 -14.95 Q 165.8 -16.95 167.57 -18.26 Q 169.35 -19.57 172.12 -19.57 L 172.12 -19.57 Z M 197.99 -19.57 Q 200.58 -19.57 202.61 -18.37 Q 204.65 -17.17 205.79 -14.95 Q 206.94 -12.73 206.94 -9.84 L 206.94 -9.84 Q 206.94 -6.88 205.76 -4.53 Q 204.57 -2.18 202.45 -0.83 Q 200.32 0.52 197.58 0.52 L 197.58 0.52 Q 195.03 0.52 192.99 -0.68 Q 190.96 -1.89 189.79 -4.11 Q 188.63 -6.33 188.63 -9.25 L 188.63 -9.25 Q 188.63 -12.17 189.79 -14.52 Q 190.96 -16.87 193.08 -18.22 Q 195.21 -19.57 197.99 -19.57 L 197.99 -19.57 Z M 197.65 -18.91 Q 196.06 -18.91 194.82 -17.78 Q 193.58 -16.65 192.9 -14.49 Q 192.22 -12.32 192.22 -9.36 L 192.22 -9.36 Q 192.22 -4.66 193.81 -2.4 Q 195.4 -0.15 197.91 -0.15 L 197.91 -0.15 Q 199.5 -0.15 200.74 -1.29 Q 201.98 -2.44 202.67 -4.61 Q 203.35 -6.77 203.35 -9.73 L 203.35 -9.73 Q 203.35 -14.39 201.76 -16.65 Q 200.17 -18.91 197.65 -18.91 L 197.65 -18.91 Z" stroke-linecap="round" />
</g>
</g>
</g>
</svg>